<mxfile host="app.diagrams.net" modified="2023-02-17T05:57:08.890Z" agent="5.0 (Windows NT 10.0; Win64; x64) AppleWebKit/537.36 (KHTML, like Gecko) Chrome/110.0.0.0 Safari/537.36" etag="HnSkkaLWTV3xLnjDFH4N" version="20.8.20" type="github">
  <diagram name="Page-1" id="2YBvvXClWsGukQMizWep">
    <mxGraphModel dx="797" dy="364" grid="1" gridSize="10" guides="1" tooltips="1" connect="1" arrows="1" fold="1" page="1" pageScale="1" pageWidth="850" pageHeight="1100" math="0" shadow="0">
      <root>
        <mxCell id="0" />
        <mxCell id="1" parent="0" />
        <mxCell id="uKCCwU_5gVgUsrPgK5_M-1" value="" style="shape=image;verticalLabelPosition=bottom;labelBackgroundColor=default;verticalAlign=top;aspect=fixed;imageAspect=0;image=data:image/jpeg,/9j/4AAQSkZJRgABAQAAAQABAAD/2wCEAAkGBwgHBgkIBwgKCgkLDRYPDQwMDRsUFRAWIB0iIiAdHx8kKDQsJCYxJx8fLT0tMTU3Ojo6Iys/RD84QzQ5OjcBCgoKDQwNGg8PGjclHyU3Nzc3Nzc3Nzc3Nzc3Nzc3Nzc3Nzc3Nzc3Nzc3Nzc3Nzc3Nzc3Nzc3Nzc3Nzc3Nzc3N//AABEIADgAOAMBEQACEQEDEQH/xAAaAAADAQEBAQAAAAAAAAAAAAAFBgcEAgMB/8QAORAAAQIEAggEBAMJAQAAAAAAAQIDAAQFEQYSEyExQVFhcYEVIpGhFDKx0RYjQzNCUlRicqPB4Qf/xAAbAQADAAMBAQAAAAAAAAAAAAAEBQYCAwcAAf/EADARAAEDAgMGBQQCAwAAAAAAAAEAAgMEEQUSMRMUIVGhsTJBgdHhInGRwWHwFTNS/9oADAMBAAIRAxEAPwC4x5eSbinHcvS3FydMSianE3C1E/ltHgbfMeQ9YFmqQzg3iU5ocIfOA+Xg3qfZT6fxHWaisqmqi/Y/uNqyIHZNr94BdK92pVDDQ08Isxg7nqsAWvNmzqzcb64wuibC1kVp2I6xT1hUvUHykfpuq0iT2OztaM2zSN0KFmoaaYWcwenA9FQcMY0l6stErPITLTitSbHyOHlwPI+pg6GpD+DuBU7XYS+nGePi3qP7zTZBSUJN/wDRsRuUqTRISSymamQcziTYtI4jmdYHQwLUylgyjUprhFPFPOc58PG3P4UnTqELlXrTJysxOPhmUYcedOxDaSTHgC7gFhJIyNuZ5sEcTgvEJRn8OI5F1F/rG008oF7IL/K0d7Z+h9lnXh6qtKKHZQoUNylpB+sL5K2GJ2V5sf5B9lubWQOFw5fBQ6j/AC/+RP3jX/kqb/rofZZb1DzVOwdUJyakPh6mm00xqzlQOkTuJtv3H/sOaCviqgWtdchSuJQRxyZovCehU3xTNGp1medWbjSlCOSU6h9L94+y/WSpimxF9LXbw3yNiOY0t+/ugknKuzc41KMpu864G0jmTAoaSbBdT3iMw7cH6bX9E7VqrtYRZFDoAQJoJBmptSQVZiNnX2AIivwrCmFm0k07rnGL4vLLKQD8fwEqiv1kPaXxWdz3v+3Vb0vb2h9ulPa2QfhIt4mvfMfynfCmI/xEDSqvl+NCSpiYAtnttBHHfzHSJfHsChlhLmjh2PsnWG4k8Pyu17/K9nEKbWpCxZSSQRzjk8kbo3ljtRwVe1wcAQtNKeLFQZUNhVlPQ6oMwuYw1bHczY+vBaqlmeIhTdwnOrN81zfrFgucnVFsEpR+Lqetey6x3yKtHo2jagqownEiaKSjedOLftcXH7/KF4k0gxFU9NfP8U5t4Zjb2tHRKS27styCmai+2dfmUOghakWwkHDiemaL5viE+m/2vAtbbdn35LfS327bc1Q6vbxKYy7M3+hHEMVtvsluf6C6BTf6WrKgHSJy/NcW6wDGHZ25dbhbjaxuk7FEmqn1+dYULJLpcRzSrWPrbtF7ILOIXO6hmSVwQ6WmHJWZamGFZXWlhaDzBjEGxutbHuY4ObqE4VeksYxZFYoa201DKBNSilAEkb+vPYRbZaKbDMUbG3ZyadvhHSwiqG1i8XmEsDDFdLui8Jms/wDZq9dnvDzfaa184Qe6z3tlKccM0JvDCxOVRba6o6giXlkKvoxvJ++zdviaxzGmMhOXTufL0TbD6HLKA7xHoPNalqUtalqN1KNyeccqe5z3FztSq8AAWC00pgv1BlNtSVZz0GuC8MgM1WxvI3Pp/bLVUvyRErrH2Hl1aTTOSaM05Lg+UbXEcOo2jvxi4ljzC4UrW05kbmbqFKSYESVdMTD0s6l6XdcadTsW2opI7iPoNtF9a4tNwbIorF1f0eTxR7LbblTf1teM9o/mt+9T28SP4dk3kS6p2dWtyambKUtxRUoJ3C59Yl8UqdtLkGje6qcHpTFFtX+J3by90WtCuycXTLRZEyjJcdH5rm0fwjhFlhFAaaMvf4ndBy9/hKKqfaOsNAiUN0KlLFGCZWruLm5JYlZxWtRt5HD/AFDceY73jS+IO4hA1FE2Q5m8Cp7UsL1unLIfpzy0j9RhOkSefl1juBA5jcPJLH00zNW/jiucPUlyfqYbeZWG2fM6lSSCeCe/3gGtmdFHZviOiLw2j28/1j6W8T7eqo7NPmnj5GVJHFYyiEUWHVU3hYR9+Hf9KwdURM1KM0+lNypDjh0jo2HcnpFFQ4THTHO/6ndB9vfsl81U6TgOARGG6FX/2Q==;" vertex="1" parent="1">
          <mxGeometry x="60" y="220" width="40" height="40" as="geometry" />
        </mxCell>
        <mxCell id="uKCCwU_5gVgUsrPgK5_M-8" value="" style="group" vertex="1" connectable="0" parent="1">
          <mxGeometry x="210" y="90" width="70" height="110" as="geometry" />
        </mxCell>
        <mxCell id="uKCCwU_5gVgUsrPgK5_M-6" value="" style="whiteSpace=wrap;html=1;aspect=fixed;container=1;" vertex="1" parent="uKCCwU_5gVgUsrPgK5_M-8">
          <mxGeometry x="-10" y="30" width="80" height="80" as="geometry" />
        </mxCell>
        <mxCell id="uKCCwU_5gVgUsrPgK5_M-7" value="자사 서버" style="rounded=0;whiteSpace=wrap;html=1;" vertex="1" parent="uKCCwU_5gVgUsrPgK5_M-8">
          <mxGeometry x="-10" width="80" height="30" as="geometry" />
        </mxCell>
        <mxCell id="uKCCwU_5gVgUsrPgK5_M-9" value="" style="group" vertex="1" connectable="0" parent="1">
          <mxGeometry x="200" y="280" width="80" height="110" as="geometry" />
        </mxCell>
        <mxCell id="uKCCwU_5gVgUsrPgK5_M-10" value="" style="whiteSpace=wrap;html=1;aspect=fixed;container=1;" vertex="1" parent="uKCCwU_5gVgUsrPgK5_M-9">
          <mxGeometry y="30" width="80" height="80" as="geometry" />
        </mxCell>
        <mxCell id="uKCCwU_5gVgUsrPgK5_M-11" value="연동사 서버" style="rounded=0;whiteSpace=wrap;html=1;" vertex="1" parent="uKCCwU_5gVgUsrPgK5_M-9">
          <mxGeometry width="80" height="30" as="geometry" />
        </mxCell>
        <mxCell id="uKCCwU_5gVgUsrPgK5_M-13" value="&lt;b&gt;1. 광고 요청&lt;/b&gt;" style="endArrow=classic;html=1;rounded=0;exitX=1;exitY=0;exitDx=0;exitDy=0;entryX=0;entryY=0.5;entryDx=0;entryDy=0;" edge="1" parent="1" source="uKCCwU_5gVgUsrPgK5_M-1" target="uKCCwU_5gVgUsrPgK5_M-6">
          <mxGeometry width="50" height="50" relative="1" as="geometry">
            <mxPoint x="330" y="280" as="sourcePoint" />
            <mxPoint x="380" y="230" as="targetPoint" />
          </mxGeometry>
        </mxCell>
        <mxCell id="uKCCwU_5gVgUsrPgK5_M-15" value="&lt;b&gt;2. 타사 패스백 광고 &lt;br&gt;호출&amp;nbsp;스크립트 응답&lt;/b&gt;" style="endArrow=classic;html=1;rounded=0;exitX=0;exitY=0.75;exitDx=0;exitDy=0;entryX=1;entryY=0.5;entryDx=0;entryDy=0;" edge="1" parent="1" source="uKCCwU_5gVgUsrPgK5_M-6" target="uKCCwU_5gVgUsrPgK5_M-1">
          <mxGeometry x="-0.1176" y="27" width="50" height="50" relative="1" as="geometry">
            <mxPoint x="330" y="280" as="sourcePoint" />
            <mxPoint x="110" y="250" as="targetPoint" />
            <mxPoint as="offset" />
          </mxGeometry>
        </mxCell>
        <mxCell id="uKCCwU_5gVgUsrPgK5_M-16" value="&lt;b&gt;3. 타사 광고 요청&lt;/b&gt;" style="endArrow=classic;html=1;rounded=0;exitX=1;exitY=0.75;exitDx=0;exitDy=0;entryX=-0.034;entryY=0.277;entryDx=0;entryDy=0;entryPerimeter=0;" edge="1" parent="1" source="uKCCwU_5gVgUsrPgK5_M-1" target="uKCCwU_5gVgUsrPgK5_M-10">
          <mxGeometry x="-0.0773" y="23" width="50" height="50" relative="1" as="geometry">
            <mxPoint x="330" y="280" as="sourcePoint" />
            <mxPoint x="380" y="230" as="targetPoint" />
            <mxPoint as="offset" />
          </mxGeometry>
        </mxCell>
        <mxCell id="uKCCwU_5gVgUsrPgK5_M-17" value="&lt;b&gt;4. 광고 응답&lt;/b&gt;" style="endArrow=classic;html=1;rounded=0;exitX=0;exitY=0.5;exitDx=0;exitDy=0;entryX=0.75;entryY=1;entryDx=0;entryDy=0;" edge="1" parent="1" source="uKCCwU_5gVgUsrPgK5_M-10" target="uKCCwU_5gVgUsrPgK5_M-1">
          <mxGeometry x="0.2277" y="20" width="50" height="50" relative="1" as="geometry">
            <mxPoint x="110" y="260" as="sourcePoint" />
            <mxPoint x="50" y="330" as="targetPoint" />
            <mxPoint as="offset" />
          </mxGeometry>
        </mxCell>
        <mxCell id="uKCCwU_5gVgUsrPgK5_M-18" value="" style="shape=flexArrow;endArrow=classic;startArrow=classic;html=1;rounded=0;" edge="1" parent="1">
          <mxGeometry width="100" height="100" relative="1" as="geometry">
            <mxPoint x="240" y="270" as="sourcePoint" />
            <mxPoint x="240" y="210" as="targetPoint" />
          </mxGeometry>
        </mxCell>
        <mxCell id="uKCCwU_5gVgUsrPgK5_M-20" value="&lt;h1&gt;자사 지면 사용에 따른 매체피 정산&lt;/h1&gt;&lt;p&gt;지면에 나갈 자사 광고 물량이 없는 경우 패스백을 통해 엠커버 형식의 타사 광고를 송출하며 자사 지면 사용에 따른 연동사에게 매체피를 정산 받는다.&lt;/p&gt;" style="text;html=1;strokeColor=none;fillColor=none;spacing=5;spacingTop=-20;whiteSpace=wrap;overflow=hidden;rounded=0;" vertex="1" parent="1">
          <mxGeometry x="300" y="180" width="380" height="120" as="geometry" />
        </mxCell>
      </root>
    </mxGraphModel>
  </diagram>
</mxfile>
